<?xml version="1.0" encoding="UTF-8"?>
<svg width="280px" height="60px" viewBox="0 0 280 60" version="1.1" xmlns="http://www.w3.org/2000/svg" xmlns:xlink="http://www.w3.org/1999/xlink">
    <!-- Generator: Sketch 53 (72520) - https://sketchapp.com -->
    <title>logo / guylepage-logo-wordmark</title>
    <desc>Created with Sketch.</desc>
    <g id="Symbols" stroke="none" stroke-width="1" fill="none" fill-rule="evenodd">
        <g id="Logo-/-guylepage-logo-wordmark" fill="#000000">
            <path d="M34.0938,30.0469 C34.0938,25.9689 32.2418,23.4139 29.2888,23.4139 C26.3128,23.4139 24.5078,25.9449 24.5078,30.0469 C24.5078,34.1719 26.2888,36.4689 29.2888,36.4689 C32.2658,36.4689 34.0938,34.1719 34.0938,30.0469 Z M16.6798,44.4849 L24.7188,44.4849 C25.1168,45.9609 26.8518,46.9919 29.2188,46.9919 C32.4068,46.9919 34.0708,45.2809 34.0708,42.7499 L34.0708,38.0629 L33.9068,38.0629 C32.8988,40.7579 29.8988,42.6099 26.1488,42.6099 C20.0548,42.6099 15.9998,37.9689 15.9998,29.9769 C15.9998,21.8199 19.8668,16.9219 26.2658,16.9219 C29.9688,16.9219 32.8048,18.9379 33.9528,21.8199 L34.1168,21.8199 L34.1168,17.2969 L42.3668,17.2969 L42.3668,42.5389 C42.3668,48.6329 36.9768,52.4299 29.0318,52.4299 C21.7658,52.4299 17.1488,49.1249 16.6798,44.4849 Z M71.2656,42.8203 L63.2026,42.8203 L63.2026,37.9923 L63.0386,37.9923 C61.8906,41.3433 59.4526,43.3123 55.6096,43.3123 C50.1246,43.3123 46.2576,39.7263 46.2576,33.7033 L46.2576,17.2973 L54.5786,17.2973 L54.5786,31.8983 C54.5786,34.9223 56.1486,36.5393 58.7496,36.5393 C61.3276,36.5393 62.9686,34.6173 62.9686,31.7343 L62.9686,17.2973 L71.2656,17.2973 L71.2656,42.8203 Z M76.0938,52.1953 L76.0938,45.9143 C76.2108,45.9373 77.7578,45.9613 77.8988,45.9613 C80.4998,45.9613 81.7418,45.3043 81.9528,43.7573 C81.9528,43.6173 82.0468,42.9843 81.9998,42.8203 L73.3988,17.2973 L82.5628,17.2973 L87.1798,36.5863 L87.3208,36.5863 L91.9138,17.2973 L100.6798,17.2973 L92.5238,42.7503 C90.3438,49.5933 86.5938,52.2183 79.1168,52.2183 C78.9998,52.2183 76.2108,52.2183 76.0938,52.1953 Z M112.234,42.8197 L112.234,8.9997 L120.554,8.9997 L120.554,42.8197 L112.234,42.8197 Z M132.0859,27.1406 L141.3669,27.1406 C141.2269,24.4216 139.3749,22.5936 136.7499,22.5936 C134.1949,22.5936 132.2969,24.4926 132.0859,27.1406 Z M149.0549,34.7576 C148.2579,40.0316 143.5699,43.4296 136.8909,43.4296 C128.7579,43.4296 123.9059,38.4376 123.9059,30.1876 C123.9059,21.9376 128.8049,16.6876 136.6089,16.6876 C144.2969,16.6876 149.1949,21.7266 149.1949,29.5316 L149.1949,31.8746 L131.9689,31.8746 L131.9689,32.3906 C131.9689,35.4376 134.0079,37.5466 137.0079,37.5466 C139.2339,37.5466 140.9689,36.4926 141.5549,34.7576 L149.0549,34.7576 Z M170.2891,30.0703 C170.2891,26.0153 168.4141,23.4143 165.4841,23.4143 C162.5781,23.4143 160.7031,26.0393 160.6801,30.0703 C160.7031,34.1253 162.5551,36.7033 165.4841,36.7033 C168.4371,36.7033 170.2891,34.1253 170.2891,30.0703 Z M178.7731,30.0703 C178.7731,38.3903 175.0471,43.1953 168.6951,43.1953 C164.9451,43.1953 162.1331,41.4143 160.8911,38.4613 L160.7261,38.4613 L160.7261,51.0703 L152.4061,51.0703 L152.4061,17.2973 L160.6801,17.2973 L160.6801,21.8433 L160.8441,21.8433 C162.1331,18.7733 164.8981,16.9223 168.5781,16.9223 C175.0231,16.9223 178.7731,21.7263 178.7731,30.0703 Z M197.3125,33.6563 L197.3125,31.8983 L192.6715,32.2033 C190.4925,32.3673 189.2735,33.3753 189.2735,34.8753 C189.2735,36.4923 190.6095,37.4763 192.5785,37.4763 C195.1095,37.4763 197.3125,35.9293 197.3125,33.6563 Z M181.0465,35.4373 C181.0465,30.6563 184.7265,27.9843 191.3355,27.5863 L197.3125,27.2343 L197.3125,25.7813 C197.3125,23.7423 195.8595,22.6173 193.6795,22.6173 C191.4295,22.6173 190.0005,23.7893 189.7655,25.3593 L182.2895,25.3593 C182.5235,20.1333 186.9765,16.6873 194.1015,16.6873 C200.9215,16.6873 205.4455,20.1793 205.4455,25.3123 L205.4455,42.8203 L197.3595,42.8203 L197.3595,39.1873 L197.1955,39.1873 C195.8125,41.7653 192.6955,43.1953 189.6255,43.1953 C184.8905,43.1953 181.0465,40.0543 181.0465,35.4373 Z M226.7266,30.0469 C226.7266,25.9689 224.8746,23.4139 221.9216,23.4139 C218.9456,23.4139 217.1406,25.9449 217.1406,30.0469 C217.1406,34.1719 218.9216,36.4689 221.9216,36.4689 C224.8986,36.4689 226.7266,34.1719 226.7266,30.0469 Z M209.3126,44.4849 L217.3516,44.4849 C217.7496,45.9609 219.4846,46.9919 221.8516,46.9919 C225.0396,46.9919 226.7036,45.2809 226.7036,42.7499 L226.7036,38.0629 L226.5396,38.0629 C225.5316,40.7579 222.5316,42.6099 218.7816,42.6099 C212.6876,42.6099 208.6326,37.9689 208.6326,29.9769 C208.6326,21.8199 212.4996,16.9219 218.8986,16.9219 C222.6016,16.9219 225.4376,18.9379 226.5856,21.8199 L226.7496,21.8199 L226.7496,17.2969 L234.9996,17.2969 L234.9996,42.5389 C234.9996,48.6329 229.6096,52.4299 221.6646,52.4299 C214.3986,52.4299 209.7816,49.1249 209.3126,44.4849 Z M246.4141,27.1406 L255.6951,27.1406 C255.5551,24.4216 253.7031,22.5936 251.0781,22.5936 C248.5231,22.5936 246.6251,24.4926 246.4141,27.1406 Z M263.3831,34.7576 C262.5861,40.0316 257.8981,43.4296 251.2191,43.4296 C243.0861,43.4296 238.2341,38.4376 238.2341,30.1876 C238.2341,21.9376 243.1331,16.6876 250.9371,16.6876 C258.6251,16.6876 263.5231,21.7266 263.5231,29.5316 L263.5231,31.8746 L246.2971,31.8746 L246.2971,32.3906 C246.2971,35.4376 248.3361,37.5466 251.3361,37.5466 C253.5621,37.5466 255.2971,36.4926 255.8831,34.7576 L263.3831,34.7576 Z" id="guylepage-logo-wordmark"></path>
        </g>
    </g>
</svg>