<?xml version="1.0" encoding="UTF-8"?>
<svg width="16px" height="16px" viewBox="0 0 16 16" version="1.1" xmlns="http://www.w3.org/2000/svg" xmlns:xlink="http://www.w3.org/1999/xlink">
    <!-- Generator: Sketch 52.2 (67145) - http://www.bohemiancoding.com/sketch -->
    <title>logo/rgb/guylepage-mite</title>
    <desc>Created with Sketch.</desc>
    <g id="Symbols" stroke="none" stroke-width="1" fill="none" fill-rule="evenodd">
        <g id="logo/rgb/guylepage-mite">
            <g id="guylepage-mite-16x16">
                <path d="M16,4.798625 C16,3.781 15.97575,2.267375 15.0284375,1.2750625 C14.114375,0.3175625 13.21125,0 11.290625,0 L4.709375,0 C2.78875,0 1.885625,0.3175625 0.9715625,1.2750625 C0.02425,2.267375 0,3.781 0,4.798625 L0,11.2014375 C0,12.2190625 0.02425,13.7326875 0.9715625,14.725 C1.885625,15.6825 2.78875,16 4.709375,16 L11.290625,16 C13.21125,16 14.114375,15.6825 15.0284375,14.725 C15.97575,13.7326875 16,12.2190625 16,11.2014375 L16,4.798625 Z" id="Fill-1" fill="#000000"></path>
                <path d="M8.1484,10 C5.8714,10 4.5004,8.619 4.5004,6.238 C4.5004,3.886 5.8714,2.5 8.1024,2.5 C9.8934,2.5 11.2334,3.54 11.4234,5.017 L9.5654,5.017 C9.3814,4.374 8.8284,3.982 8.1074,3.982 C7.0434,3.982 6.4134,4.801 6.4134,6.212 C6.4134,7.649 7.1094,8.518 8.1894,8.518 C9.0384,8.518 9.6324,8.026 9.6834,7.297 L9.6884,7.187 L8.3374,7.187 L8.3374,5.921 L11.5004,5.921 L11.5004,6.81 C11.5004,8.789 10.2514,10 8.1484,10" id="Fill-2" fill="#FFFFFF"></path>
                <polygon id="Fill-4" fill="#FFFFFF" points="4.5 13 11.5 13 11.5 11.5 4.5 11.5"></polygon>
            </g>
        </g>
    </g>
</svg>