<?xml version="1.0" encoding="utf-8"?>
<!-- Generator: Adobe Illustrator 22.1.0, SVG Export Plug-In . SVG Version: 6.00 Build 0)  -->
<svg version="1.1" id="Layer_1" xmlns="http://www.w3.org/2000/svg" xmlns:xlink="http://www.w3.org/1999/xlink" x="0px" y="0px"
	 viewBox="0 0 16 16" style="enable-background:new 0 0 16 16;" xml:space="preserve">
<g>
	<g transform="translate(0.000000,1024.000000) scale(0.100000,-0.100000)">
		<path d="M77.6,10229.9c0,0-0.7-0.1-1.5-0.1c-1.4-0.1-2.2-0.2-3.2-0.3c-0.9-0.1-2.4-0.4-2.8-0.5c-0.2,0-0.6-0.1-0.9-0.2
			c-0.3-0.1-1.5-0.3-2.7-0.6c-9.3-2.4-17-7.3-22.3-14.1c-0.3-0.4-0.7-0.8-0.7-0.9c-0.1,0-0.7-0.9-1.4-2c-2.1-3.2-4-7-5.3-10.9
			c-0.4-1.2-1.2-3.9-1.3-4.6c-0.3-1.7-0.7-3.6-0.8-3.9c0-0.2-0.1-0.8-0.2-1.4s-0.2-1.4-0.2-1.9c-0.1-0.5-0.1-1.1-0.2-1.3
			c-0.4-2.9-0.4-11.7,0-15.1c0-0.3,0.1-0.9,0.2-1.4c0.1-1,0.2-1.7,0.5-3.3c0.1-0.7,0.2-1.5,0.3-1.8c0-0.2,0.2-0.8,0.3-1.2
			s0.2-0.8,0.2-0.9s0-0.2,0.1-0.4s0.2-0.6,0.2-0.8c0.1-0.9,1.3-4.4,2-6.2c0.7-1.6,2.4-5.2,2.9-6.1c0.4-0.7,2.1-3.3,2.4-3.7
			c0.1-0.2,0.9-1.2,1.7-2.1c4.8-5.7,11.2-10,18.7-12.4c1.8-0.6,4.8-1.4,6-1.6c0.3,0,0.7-0.1,0.9-0.2s0.6-0.1,0.9-0.2
			c0.3,0,1-0.2,1.6-0.2c4.6-0.7,12.2-0.7,17-0.1c0.4,0.1,1,0.1,1.2,0.2c0.8,0.1,2.9,0.5,3.6,0.7c0.3,0.1,0.7,0.2,0.9,0.2
			c1.4,0.3,5.5,1.7,7.7,2.6c9.9,4.4,16.7,12.1,20.2,22.6c0.4,1.1,0.7,2.2,0.8,2.5c0,0.2,0.2,0.9,0.3,1.4s0.3,1.2,0.3,1.5
			c0.1,0.3,0.1,0.6,0.2,0.7c0,0,0.1,0.5,0.2,1c0.1,0.8,0.1,1.1,0.3,2.3c0.2,1.4,0.3,4.5,0.3,11.2v7.5h-20.8c-13.8,0-20.8,0-20.9-0.2
			c0-0.1,0-3.9,0-8.5v-8.4h8.9h8.9v-1.2c-0.1-3.2-1.3-6.6-3.1-9.2c-3-4.1-8.4-7-14.3-7.5c-1.3-0.1-3.8-0.1-4.6,0
			c-1.7,0.2-2.1,0.3-3,0.5c-9.4,2.2-15.8,10.4-17.6,22.6c-0.1,1-0.3,2.3-0.4,3c-0.1,1.7-0.1,7.9,0,9.7c0.2,2.2,0.2,2.5,0.7,5
			c0.2,1.4,0.8,3.5,1.3,5.1c2,5.9,5.6,10.3,10.2,12.8c1.2,0.6,3.3,1.4,4.1,1.6c0.2,0,0.4,0.1,0.5,0.1s0.4,0.1,0.7,0.2
			c0.3,0.1,0.7,0.1,0.8,0.2c0.1,0,0.8,0.1,1.4,0.2c4.4,0.4,8.3-0.3,11.8-1.9c4.4-2.1,7.5-5.6,9.3-10.3l0.6-1.5h12.2h12.2v0.3
			c0,0.7-0.7,4-1.3,5.8c-2.3,7.5-7.2,14.3-13.6,18.9c-0.5,0.3-1,0.7-1.1,0.8s-0.3,0.2-0.5,0.3s-0.3,0.2-0.3,0.2s-0.1,0.1-0.2,0.1
			s-0.3,0.1-0.4,0.2c-0.7,0.6-4.9,2.7-7.1,3.6c-2.7,1.1-6.7,2.2-8.7,2.5c-1.3,0.2-1.5,0.2-2.3,0.4c-0.4,0.1-1.3,0.2-1.9,0.2
			s-1.2,0.1-1.4,0.2C86.1,10229.9,77.7,10230,77.6,10229.9z"/>
		<path d="M33.1,10100v-10h46.8h46.8v10v10H80H33.1V10100z"/>
	</g>
</g>
</svg>
