<?xml version="1.0" encoding="UTF-8"?>
<svg width="16px" height="16px" viewBox="0 0 16 16" version="1.1" xmlns="http://www.w3.org/2000/svg" xmlns:xlink="http://www.w3.org/1999/xlink">
    <!-- Generator: Sketch 52.2 (67145) - http://www.bohemiancoding.com/sketch -->
    <title>logo/rgb/guylepage-mite</title>
    <desc>Created with Sketch.</desc>
    <g id="Symbols" stroke="none" stroke-width="1" fill="none" fill-rule="evenodd">
        <g id="logo/rgb/guylepage-mite" fill="#000000">
            <g id="guylepage-mite">
                <path d="M8.19605,11.09095 C5.18855,11.09095 3.37705,9.23245 3.37705,6.02845 C3.37705,2.86545 5.18855,0.99995 8.13505,0.99995 C10.50055,0.99995 12.27155,2.39895 12.52155,4.38645 L10.06805,4.38645 C9.82505,3.52095 9.09505,2.99395 8.14205,2.99395 C6.73605,2.99395 5.90455,4.09545 5.90455,5.99495 C5.90455,7.92795 6.82405,9.09695 8.25005,9.09695 C9.37205,9.09695 10.15605,8.43495 10.22355,7.45495 L10.23055,7.30595 L8.44605,7.30595 L8.44605,5.60295 L12.62305,5.60295 L12.62305,6.79895 C12.62305,9.46195 10.97405,11.09095 8.19605,11.09095" id="Fill-1"></path>
                <polygon id="Fill-3" points="3.3145 15 12.6855 15 12.6855 13 3.3145 13"></polygon>
            </g>
        </g>
    </g>
</svg>