<?xml version="1.0" encoding="UTF-8"?>
<svg width="16px" height="16px" viewBox="0 0 16 16" version="1.1" xmlns="http://www.w3.org/2000/svg" xmlns:xlink="http://www.w3.org/1999/xlink">
    <!-- Generator: Sketch 52.2 (67145) - http://www.bohemiancoding.com/sketch -->
    <title>logo/rgb/guylepage-mite</title>
    <desc>Created with Sketch.</desc>
    <g id="Symbols" stroke="none" stroke-width="1" fill="none" fill-rule="evenodd">
        <g id="logo/rgb/guylepage-mite">
            <g id="guylepage-mite">
                <path d="M15,5.19879687 C15,4.308375 14.9787812,2.98395312 14.1498828,2.11567969 C13.3500781,1.27786719 12.5598437,1 10.8792969,1 L5.12070312,1 C3.44015625,1 2.64992187,1.27786719 1.85011719,2.11567969 C1.02121875,2.98395312 1,4.308375 1,5.19879687 L1,10.8012578 C1,11.6916797 1.02121875,13.0161016 1.85011719,13.884375 C2.64992187,14.7221875 3.44015625,15 5.12070312,15 L10.8792969,15 C12.5598437,15 13.3500781,14.7221875 14.1498828,13.884375 C14.9787812,13.0161016 15,11.6916797 15,10.8012578 L15,5.19879687 Z" id="Fill-1" fill="#000000"></path>
                <path d="M8.1453,10.384 C5.9153,10.384 4.5713,9.024 4.5713,6.68 C4.5713,4.365 5.9153,3 8.1003,3 C9.8543,3 11.1683,4.024 11.3533,5.478 L9.5343,5.478 C9.3533,4.845 8.8123,4.459 8.1053,4.459 C7.0623,4.459 6.4463,5.265 6.4463,6.655 C6.4463,8.069 7.1283,8.925 8.1853,8.925 C9.0173,8.925 9.5993,8.44 9.6493,7.723 L9.6543,7.614 L8.3313,7.614 L8.3313,6.368 L11.4283,6.368 L11.4283,7.243 C11.4283,9.192 10.2053,10.384 8.1453,10.384" id="Fill-2" fill="#FFFFFF"></path>
                <polygon id="Fill-4" fill="#FFFFFF" points="4.571 13 11.428 13 11.428 12 4.571 12"></polygon>
            </g>
        </g>
    </g>
</svg>