<?xml version="1.0" standalone="no"?>
<!DOCTYPE svg PUBLIC "-//W3C//DTD SVG 20010904//EN"
 "http://www.w3.org/TR/2001/REC-SVG-20010904/DTD/svg10.dtd">
<svg version="1.0" xmlns="http://www.w3.org/2000/svg"
 width="1024.000000pt" height="1024.000000pt" viewBox="0 0 1024.000000 1024.000000"
 preserveAspectRatio="xMidYMid meet">
<metadata>
Created by potrace 1.11, written by Peter Selinger 2001-2013
</metadata>
<g transform="translate(0.000000,1024.000000) scale(0.100000,-0.100000)"
fill="#000000" stroke="none">
<path d="M4968 9595 c-2 -1 -43 -6 -93 -9 -92 -7 -143 -12 -205 -21 -56 -8
-153 -24 -176 -29 -12 -2 -39 -7 -60 -10 -22 -4 -98 -22 -171 -41 -595 -156
-1085 -465 -1429 -900 -21 -27 -42 -52 -45 -55 -4 -3 -43 -59 -87 -126 -135
-202 -257 -451 -341 -699 -26 -78 -77 -251 -86 -295 -22 -106 -47 -230 -50
-250 -2 -14 -8 -54 -14 -90 -6 -36 -13 -90 -16 -120 -4 -30 -8 -68 -10 -85
-25 -184 -26 -751 -1 -965 3 -19 7 -59 10 -88 8 -66 14 -106 32 -212 8 -47 16
-98 19 -115 3 -16 10 -52 17 -80 6 -27 11 -52 11 -55 0 -3 3 -15 8 -28 5 -13
11 -36 14 -51 9 -55 84 -280 130 -398 42 -103 151 -331 188 -388 27 -43 137
-212 154 -235 9 -14 59 -75 110 -137 305 -365 715 -637 1197 -795 112 -36 310
-89 386 -102 19 -3 46 -8 60 -11 14 -3 41 -8 60 -10 19 -3 64 -10 100 -15 294
-45 784 -47 1090 -5 25 4 61 9 80 11 49 6 187 33 230 44 19 5 46 11 60 13 92
17 355 106 495 168 632 283 1068 772 1290 1446 24 72 46 144 49 160 3 15 12
55 20 88 8 33 17 77 20 99 4 21 8 41 10 45 2 3 7 31 10 61 6 52 9 73 21 145
14 87 20 287 20 720 l0 479 -1332 1 c-880 0 -1334 -3 -1336 -10 -2 -5 -3 -251
-2 -545 l1 -535 569 0 570 0 -2 -75 c-7 -202 -82 -423 -200 -588 -189 -265
-537 -447 -913 -477 -83 -6 -243 -6 -295 0 -107 13 -135 17 -195 31 -604 142
-1009 664 -1125 1449 -9 61 -19 146 -23 190 -9 107 -9 508 1 620 11 141 14
163 43 320 16 89 51 223 86 325 130 380 356 662 654 817 74 39 209 90 263 100
14 2 28 6 32 8 4 3 24 7 45 10 22 4 46 8 54 10 8 3 49 8 90 11 279 24 532 -18
753 -124 283 -136 482 -357 597 -662 l36 -95 782 -1 782 -2 0 22 c0 46 -46
259 -81 372 -146 479 -461 917 -869 1209 -30 22 -61 45 -68 52 -6 6 -21 15
-32 18 -11 3 -20 11 -20 16 0 5 -5 9 -12 9 -6 0 -19 6 -27 14 -43 37 -312 173
-456 229 -174 68 -427 142 -555 162 -86 14 -95 16 -145 25 -27 5 -81 12 -120
16 -38 3 -79 9 -90 11 -22 5 -562 13 -567 8z"/>
<path d="M2121 1280 l1 -640 2996 2 2997 3 2 638 1 637 -2998 0 -2999 0 0
-640z"/>
</g>
</svg>
