<?xml version="1.0" encoding="UTF-8"?>
<svg width="32px" height="32px" viewBox="0 0 32 32" version="1.1" xmlns="http://www.w3.org/2000/svg" xmlns:xlink="http://www.w3.org/1999/xlink">
    <!-- Generator: Sketch 52.2 (67145) - http://www.bohemiancoding.com/sketch -->
    <title>logo/rgb/guylepage-mite</title>
    <desc>Created with Sketch.</desc>
    <g id="Symbols" stroke="none" stroke-width="1" fill="none" fill-rule="evenodd">
        <g id="logo/rgb/guylepage-mite" fill="#000000">
            <g id="guylepage-mite">
                <g id="guylepage-bug" transform="translate(6.000000, 2.000000)">
                    <path d="M10.3921,20.1819 C4.3771,20.1819 0.7541,16.4649 0.7541,10.0569 C0.7541,3.7309 4.3771,-0.0001 10.2701,-0.0001 C15.0011,-0.0001 18.5431,2.7979 19.0431,6.7729 L14.1361,6.7729 C13.6501,5.0419 12.1901,3.9879 10.2841,3.9879 C7.4721,3.9879 5.8091,6.1909 5.8091,9.9899 C5.8091,13.8559 7.6481,16.1939 10.5001,16.1939 C12.7441,16.1939 14.3121,14.8699 14.4471,12.9099 L14.4611,12.6119 L10.8921,12.6119 L10.8921,9.2059 L19.2461,9.2059 L19.2461,11.5979 C19.2461,16.9239 15.9481,20.1819 10.3921,20.1819" id="Fill-1"></path>
                    <polygon id="Fill-3" points="0.629 28 19.371 28 19.371 24 0.629 24"></polygon>
                </g>
            </g>
        </g>
    </g>
</svg>