<?xml version="1.0" encoding="UTF-8"?>
<svg width="256px" height="256px" viewBox="0 0 256 256" version="1.1" xmlns="http://www.w3.org/2000/svg" xmlns:xlink="http://www.w3.org/1999/xlink">
    <!-- Generator: Sketch 52.1 (67048) - http://www.bohemiancoding.com/sketch -->
    <title>logo/rgb/guylepage-bug-icon-rounded</title>
    <desc>Created with Sketch.</desc>
    <g id="Symbols" stroke="none" stroke-width="1" fill="none" fill-rule="evenodd">
        <g id="logo/rgb/guylepage-bug-icon-rounded">
            <g id="guylepage-bug-icon-rounded">
                <g>
                    <path d="M256,76.7776 C256,60.4956 255.612,36.2776 240.455,20.4006 C225.83,5.0806 211.38,-0.0004 180.65,-0.0004 L75.35,-0.0004 C44.62,-0.0004 30.17,5.0806 15.545,20.4006 C0.388,36.2776 0,60.4956 0,76.7776 L0,179.2226 C0,195.5046 0.388,219.7226 15.545,235.5996 C30.17,250.9196 44.62,255.9996 75.35,255.9996 L180.65,255.9996 C211.38,255.9996 225.83,250.9196 240.455,235.5996 C255.612,219.7226 256,195.5046 256,179.2226 L256,76.7776 Z" id="Fill-1" fill="#000000"></path>
                    <polygon id="underscore" fill="#FFFFFF" points="83 194.628 173 194.628 173 176.999 83 176.999"></polygon>
                    <path d="M129.8826,158.2863 C100.9966,158.2863 83.5996,140.4353 83.5996,109.6673 C83.5996,79.2873 100.9966,61.3713 129.2986,61.3713 C152.0176,61.3713 169.0246,74.8083 171.4266,93.8933 L147.8636,93.8933 C145.5266,85.5843 138.5156,80.5213 129.3626,80.5213 C115.8616,80.5213 107.8766,91.1013 107.8766,109.3423 C107.8766,127.9073 116.7056,139.1373 130.4016,139.1373 C141.1776,139.1373 148.7076,132.7763 149.3566,123.3633 L149.4216,121.9353 L132.2846,121.9353 L132.2846,105.5773 L172.4006,105.5773 L172.4006,117.0673 C172.4006,142.6423 156.5616,158.2863 129.8826,158.2863" id="outline" fill="#FFFFFF"></path>
                </g>
            </g>
        </g>
    </g>
</svg>